<svg width="32" height="32" viewBox="0 0 32 32" fill="none" xmlns="http://www.w3.org/2000/svg">
<path opacity="0.1" fill-rule="evenodd" clip-rule="evenodd" d="M0 16C0 7.16344 7.16344 0 16 0C24.8366 0 32 7.16344 32 16C32 24.8366 24.8366 32 16 32C7.16344 32 0 24.8366 0 16Z" fill="white"/>
<path d="M23.1111 8H9.88889C8.85 8 8 8.85 8 9.88889V23.1111C8 24.1509 8.85 25 9.88889 25H16.5V18.3889H14.6111V16.0514H16.5V14.1153C16.5 12.0715 17.6447 10.6359 20.0568 10.6359L21.7596 10.6378V13.0981H20.6291C19.6903 13.0981 19.3333 13.8027 19.3333 14.4562V16.0523H21.7587L21.2222 18.3889H19.3333V25H23.1111C24.15 25 25 24.1509 25 23.1111V9.88889C25 8.85 24.15 8 23.1111 8Z" fill="white"/>
</svg>
