<svg width="17" height="16" viewBox="0 0 17 16" fill="none" xmlns="http://www.w3.org/2000/svg">
<path d="M15.4975 16C6.96587 16.0121 0.490882 9.4595 0.50001 1.00251C0.50001 0.450225 0.947725 0 1.50001 0H4.13937C4.63494 0 5.05593 0.364129 5.1287 0.854329C5.30311 2.0292 5.64517 3.17297 6.14448 4.2507L6.24725 4.4725C6.39013 4.78091 6.29328 5.14734 6.01668 5.34487C5.1993 5.92859 4.88692 7.10355 5.5237 8.02036C6.32278 9.17084 7.33005 10.1779 8.48027 10.9766C9.39702 11.6132 10.5718 11.3009 11.1555 10.4836C11.3532 10.2069 11.7198 10.11 12.0284 10.2529L12.2492 10.3552C13.327 10.8545 14.4708 11.1966 15.6458 11.371C16.136 11.4437 16.5 11.8647 16.5 12.3603V15C16.5 15.5523 16.0512 16 15.4989 16L15.4975 16Z" fill="white"/>
</svg>
