<svg width="344" height="50" viewBox="0 0 344 50" fill="none" xmlns="http://www.w3.org/2000/svg">
<path d="M12.2604 27.6316C12.2974 27.5946 12.8291 27.486 13.4419 27.3904C14.0548 27.2947 15.2984 27.21 16.2055 27.2023L17.8548 27.188L17.9293 27.6572C18.7579 32.8758 23.2822 37.3646 27.3696 37.0234L28.3171 36.9444L29.0872 39.6041C29.5109 41.067 29.9928 42.6978 30.158 43.2279C30.5457 44.4716 30.4421 44.6057 29.3885 44.2232C28.1637 43.7786 24.3905 43.2829 22.9247 43.374C20.0363 43.5535 16.2597 44.7985 14.1751 46.2582L13.3705 46.8216L13.4012 41.5401C13.4365 35.486 13.2772 33.146 12.5968 29.7268C12.3749 28.6115 12.2235 27.6687 12.2604 27.6316Z" fill="#135575"/>
<path d="M24.2684 21.1555C23.3644 20.1358 23.3353 19.1667 24.196 18.736C24.7045 18.4816 25.0059 18.4637 25.5551 18.6555C26.1633 18.8679 26.3487 19.3488 26.2644 20.4962C26.1337 22.2765 26.713 23.1006 27.9431 22.8844C29.8977 22.541 31.4352 23.5482 30.4803 24.5466C30.0886 24.9562 30.0199 24.9643 29.2277 24.6926C28.5885 24.4734 27.4411 24.4488 27.316 24.6515C27.2744 24.719 27.4201 25.4917 27.64 26.3686C27.8598 27.2454 28.1884 28.6103 28.3703 29.4016C28.689 30.7888 29.1745 32.1865 29.4246 32.4369C29.7272 32.7401 31.1906 31.0672 31.1906 30.4183C31.1906 30.2359 31.0316 29.9373 30.8155 29.714L30.4406 29.3264L31.1488 27.7376C31.5383 26.8637 31.8897 26.1494 31.9298 26.1504C32.009 26.1523 33.9773 29.4909 34.0384 29.7271C34.0601 29.811 33.774 29.9458 33.3586 30.0474C32.6523 30.2201 32.6391 30.2315 32.4955 30.7952C31.7538 33.7075 28.5013 35.3324 25.942 34.0693C25.497 33.8496 24.6483 33.2802 24.0561 32.804C23.2551 32.1601 22.9293 31.9663 22.7841 32.0477C22.5261 32.1923 22.5255 32.1907 22.1566 30.5276C21.6793 28.3769 21.6172 27.7751 21.8726 27.7751C22.1298 27.7751 25.0335 29.6532 25.1264 29.8798C25.1637 29.9707 25.0515 30.2326 24.877 30.4617C24.3346 31.1741 24.8086 31.9538 26.2167 32.6658C27.2714 33.199 27.6684 33.1062 27.5104 32.3631C27.0316 30.111 25.7398 25.1543 25.5855 24.9773C25.2388 24.579 23.389 24.7881 22.8757 25.2835L22.4923 25.6536L22.0639 25.3651C21.2023 24.785 21.6634 23.9113 23.0094 23.5735C25.3541 22.9851 25.5526 22.6038 24.2684 21.1555Z" fill="#6F6F6F"/>
<path d="M1.29787 3.44343C-0.206475 3.22949 -0.492629 0.797938 0.914287 0.184889C2.27137 -0.406391 3.58186 0.487034 3.45858 1.91957C3.3649 3.00842 2.50469 3.61509 1.29787 3.44343Z" fill="#6F6F6F"/>
<path d="M9.24037 43.2199C7.96323 36.7819 1.54393 5.37942 1.42277 4.97681C1.36482 4.78413 1.42627 4.76812 1.95861 4.83668C2.28935 4.87934 2.59474 4.94903 2.63746 4.99182C2.86778 5.2224 12.3806 49.8351 12.2211 49.9365C11.9557 50.1049 10.7011 49.9107 10.5582 49.6791C10.5288 49.6313 9.93571 46.7247 9.24037 43.2199Z" fill="#6F6F6F"/>
<path d="M5.79069 7.26511C4.97431 5.64641 4.75386 5.10118 4.81569 4.85408C4.91299 4.46586 4.77996 4.45159 5.92221 4.97294C8.56805 6.18077 10.8783 6.71049 16.5701 7.41475C19.6018 7.78983 20.7057 7.97037 20.8101 8.10837C21.1537 8.5624 23.7586 16.8234 23.6487 17.1104C23.607 17.2194 23.2395 17.477 22.8322 17.6829C21.9761 18.1158 20.3431 19.6243 19.6685 20.6053C19.404 20.9903 18.956 21.9857 18.6158 22.9453L18.0236 24.6153L17.5353 24.6473C16.8673 24.6911 13.2959 25.0467 12.655 25.1332C11.9853 25.2236 11.9554 25.1669 11.4285 22.8115C10.2679 17.6239 8.35583 12.3515 5.79069 7.26511Z" fill="#BF1C11"/>
<path d="M35.3229 31.3029C35.4691 30.7868 35.7052 30.0678 35.8475 29.705C36.1469 28.9422 35.9159 28.9595 38.4336 29.5104C42.1903 30.3326 45.0319 31.794 46.541 33.6801C48.3001 35.8785 48.8677 36.4628 50.2665 37.5151C52.2004 38.9702 52.912 39.6359 53.8118 40.8321C54.8682 42.2363 54.8533 42.9677 53.7789 42.4485C51.2601 41.2311 48.7062 41.7457 44.8866 44.2403C43.1416 45.3799 42.0994 45.9199 40.8148 46.3498C38.2245 47.2168 34.7763 47.124 33.9824 46.1657C33.7767 45.9175 33.0594 43.4477 32.0917 39.6559L31.2383 36.311L31.7604 36.0045C33.0724 35.2343 34.888 32.8382 35.3229 31.3029Z" fill="#BF1C11"/>
<path d="M24.7268 13.1498C23.7015 9.72578 23.4667 8.80145 23.5717 8.60478C23.6593 8.44088 23.7739 8.3862 23.9127 8.44213C24.0276 8.48842 24.8305 8.70637 25.6967 8.92644C28.1974 9.56163 29.029 10.1698 32.2532 13.7216C35.3605 17.1448 35.5957 17.2738 40.8588 18.4443C47.2379 19.8632 51.3712 21.8606 52.9626 24.2935C53.3012 24.811 53.1417 24.8921 51.7834 24.8921C49.9683 24.8921 48.1044 25.6592 46.5253 27.0563C45.5533 27.9162 44.4127 28.5997 43.6912 28.7544C43.1585 28.8687 42.7763 28.797 39.3552 27.9403L35.6033 27.0011L35.4626 25.9778C34.8609 21.605 30.2878 17.1667 26.6316 17.4073L26.0137 17.4479L24.7268 13.1498Z" fill="#135575"/>
<path d="M245.576 39.2645V26.3779V13.4914H248.511H251.446V17.9954C251.446 20.9147 251.49 22.4995 251.571 22.4995C251.64 22.4995 251.696 22.4493 251.696 22.3879C251.696 22.071 252.867 21.0113 253.563 20.6985L254.318 20.359L259.158 20.404C262.527 20.4352 264.139 20.4954 264.458 20.6018C265.665 21.0031 266.698 22.0731 267.223 23.463C267.492 24.1762 267.497 24.3162 267.531 31.7265L267.566 39.2645H264.627H261.688V31.0716V22.8788L261.324 22.4702L260.96 22.0616L257.432 22.0229L253.905 21.9843L253.118 22.3722C252.663 22.5966 252.144 22.9785 251.889 23.2779L251.446 23.7956V31.5301V39.2645H248.511H245.576Z" fill="#6F6F6F"/>
<path d="M178.806 21.436C176.433 17.7202 174.353 14.4689 174.184 14.2108L173.877 13.7416L176.908 13.7475L179.939 13.7534L183.294 19.5708C185.14 22.7703 186.698 25.3717 186.757 25.3514C186.816 25.3311 188.432 22.7247 190.348 19.5593L193.832 13.8042L196.55 13.7704L199.268 13.7366L199.086 14.0206C198.985 14.1769 196.87 17.4683 194.386 21.3352L189.869 28.3657V33.7525V39.1394H186.496H183.124L183.123 33.6657L183.122 28.1921L178.806 21.436Z" fill="#6F6F6F"/>
<path d="M289.917 18.621V16.369V14.117H292.602H295.287V16.369V18.621H292.602H289.917Z" fill="#6F6F6F"/>
<path d="M272.617 20.8105L272.651 18.2769L272.685 15.7434H275.68H278.675V18.3082V20.873H282.422H286.169V21.6862V22.4995H282.422H278.675V29.512C278.675 37.2628 278.654 37.0457 279.469 37.4335C279.839 37.6091 280.447 37.638 283.784 37.638H287.668V38.4559V39.2739L281.829 39.2378C275.999 39.2019 275.989 39.2014 275.339 38.9069C274.621 38.582 273.714 37.6919 273.33 36.9364C272.761 35.8175 272.755 35.7339 272.684 29.0053L272.617 22.562L270.775 22.5274L268.933 22.4928V21.6862V20.8796L270.775 20.8451L272.617 20.8105Z" fill="#6F6F6F"/>
<path d="M289.542 39.2645V29.8185V20.3726H292.54H295.537V29.8185V39.2645H292.54H289.542Z" fill="#6F6F6F"/>
<path d="M113.428 29.9645C113.428 24.8495 113.465 20.6269 113.511 20.5811C113.557 20.5352 114.849 20.4977 116.384 20.4977H119.173V21.426V22.3543L119.891 21.6399C121.028 20.5092 121.095 20.4977 126.471 20.4977C132.18 20.4977 132.926 20.6289 134.104 21.8408C135.471 23.2466 135.531 23.6839 135.534 32.1644L135.535 39.2645H132.6H129.665L129.663 31.1635C129.661 22.3042 129.687 22.6101 128.914 22.2136C128.521 22.0118 128.133 21.9936 124.919 22.0259L121.359 22.0616L120.63 22.4034C120.23 22.5914 119.738 22.9211 119.538 23.136L119.173 23.5269V31.3957V39.2645H116.3H113.428V29.9645Z" fill="#6F6F6F"/>
<path d="M223.821 25.0491C224.073 22.5601 225.346 21.0792 227.619 20.6303C227.912 20.5724 231.426 20.5189 235.427 20.5114L242.703 20.4977V21.245V21.9921L236.572 22.0269L230.441 22.0616L230.139 22.4126L229.838 22.7637V29.9395V37.1153L230.222 37.4392L230.606 37.7631H236.717H242.828V38.5138V39.2645H235.169C226.706 39.2645 226.732 39.2666 225.69 38.4752C224.993 37.9456 224.412 37.0686 224.071 36.0306C223.752 35.0618 223.579 27.4463 223.821 25.0491Z" fill="#6F6F6F"/>
<path d="M297.661 39.2645V29.8811V20.4977H300.533H303.406V21.4458V22.3937L303.817 21.8536C304.074 21.5167 304.505 21.1719 304.964 20.9368L305.7 20.5602L310.892 20.5612C316.002 20.5622 316.095 20.5667 316.789 20.8469C318.293 21.4539 319.381 22.968 319.641 24.814C319.709 25.2995 319.765 28.715 319.766 32.4772L319.769 39.2645H316.837H313.905L313.87 31.1009C313.832 22.135 313.871 22.5682 313.068 22.1867C312.748 22.0346 312.047 21.999 309.365 21.999C305.504 21.999 304.809 22.1245 303.906 22.9855L303.406 23.4616V31.363V39.2645H300.533H297.661Z" fill="#6F6F6F"/>
<path fill-rule="evenodd" clip-rule="evenodd" d="M62.7999 13.5748C62.754 13.6206 62.7166 19.3633 62.7166 26.3363V39.0143H65.7767H68.8368V31.9801C68.8368 25.3963 68.8501 24.9658 69.0433 25.2553C70.0447 26.7553 70.4396 26.8756 74.3638 26.8771C76.1328 26.8779 77.5801 26.9022 77.5801 26.9312C77.5801 27.0782 79.5991 35.8923 79.7276 36.3068C80.0744 37.4248 81.513 38.5009 83.2632 38.9516C84.1788 39.1874 86.5849 39.3977 87.2869 39.3035L87.8006 39.2345L87.2484 38.5554C86.2985 37.3872 86.1652 36.9852 85.026 31.8532C84.0441 27.4297 83.8751 26.775 84.0868 26.61C84.1422 26.5668 84.2236 26.5572 84.3234 26.5223C85.3028 26.1804 86.4999 25.1017 87.0523 24.0634C87.3849 23.4379 87.3851 23.4371 87.3851 20.5602C87.3851 17.3252 87.3041 16.8864 86.4774 15.6387C85.9167 14.7927 85.1214 14.1978 84.0751 13.842C82.9731 13.4671 72.2749 13.3247 71.234 13.6711C70.4932 13.9175 69.7831 14.495 69.3186 15.2287L68.9617 15.7925V14.6419V13.4914H65.9225C64.2507 13.4914 62.8456 13.5289 62.7999 13.5748ZM81.3032 20.3957C81.3472 16.3312 81.2921 16.0509 80.3422 15.5162C79.868 15.2492 79.7567 15.2432 75.5022 15.2525C70.7536 15.2629 70.6532 15.2759 69.8076 15.9869C68.9937 16.6714 68.9617 16.8384 68.9617 20.4126C68.9617 24.1259 68.9676 24.1456 70.2675 24.8118L71.0042 25.1894L75.4475 25.2244C78.7221 25.2502 80.1566 25.3612 80.7887 24.7015C81.3598 24.1055 81.2763 22.8806 81.3032 20.3957Z" fill="#6F6F6F"/>
<path fill-rule="evenodd" clip-rule="evenodd" d="M92.9433 20.5707C91.528 20.955 90.4999 21.8071 89.9117 23.0837C89.4661 24.051 89.4772 35.3112 89.9249 36.4222C90.5079 37.8691 91.5917 38.8713 92.858 39.1346C93.3074 39.2281 95.8811 39.261 100.882 39.2371L108.244 39.2019L108.962 38.9115C110.492 38.2927 111.537 36.914 111.809 35.1548C112.031 33.7209 111.902 24.601 111.648 23.8608C111.117 22.3062 110.331 21.3431 109.149 20.7961L108.369 20.4351L101 20.4097C94.8027 20.3883 93.521 20.414 92.9433 20.5707ZM105.386 22.3407C105.31 22.2828 105.221 22.2426 105.116 22.1927C104.774 22.0298 104.058 21.9998 100.606 22.0039C96.2582 22.0092 95.8703 22.0556 95.5761 22.6062C95.3727 22.987 95.3969 37.0066 95.6015 37.2736C95.9582 37.7389 96.2101 37.7631 100.689 37.7631H105.078L105.443 37.3974L105.808 37.0317V30.0217C105.808 23.5665 105.815 22.6693 105.386 22.3407Z" fill="#6F6F6F"/>
<path fill-rule="evenodd" clip-rule="evenodd" d="M153.495 17.8703C153.529 20.1411 153.521 21.999 153.477 21.999C153.432 21.999 153.185 21.7649 152.928 21.4789C151.946 20.3883 151.869 20.3752 146.45 20.3738C143.769 20.3731 141.4 20.4276 141.026 20.4987C139.44 20.7999 138.186 21.7224 137.582 23.0316L137.222 23.8131L137.182 29.3181C137.153 33.2177 137.184 35.0237 137.289 35.5111C137.628 37.0933 138.5 38.2772 139.763 38.8703L140.469 39.2019L145.899 39.2395C150.713 39.2728 151.733 39.2914 152.386 38.8105C152.578 38.6684 152.739 38.4828 152.956 38.2411L153.522 37.611V38.3752V39.1394H156.519H159.517V26.4405V13.7416H156.474H153.432L153.495 17.8703ZM153.053 22.5849C152.945 22.4847 152.812 22.4117 152.647 22.3161C152.096 21.9954 144.362 21.8559 143.782 22.1563C143.699 22.1991 143.627 22.2356 143.565 22.2843C143.156 22.6046 143.158 23.45 143.156 30.0431L143.155 37.149L143.461 37.456L143.768 37.7631H148.136H152.503L152.884 37.4424C153.5 36.9234 153.52 36.6757 153.521 29.8185C153.521 24.0033 153.533 23.0283 153.053 22.5849Z" fill="#6F6F6F"/>
<path fill-rule="evenodd" clip-rule="evenodd" d="M200.735 21.24V21.9933L208.095 22.0274L215.454 22.0616L215.776 22.3648C216.215 22.7776 216.28 26.001 215.86 26.5204L215.621 26.8158L209.459 26.8794C203.477 26.9411 203.276 26.951 202.624 27.2174C201.216 27.7931 200.552 28.4945 200.17 29.8099C199.838 30.9562 199.954 35.6827 200.339 36.6555C200.696 37.558 201.466 38.4329 202.281 38.8638L202.921 39.2019L208.382 39.2382C213.228 39.2703 214.31 39.2797 215.007 38.7651C215.211 38.6145 215.381 38.4189 215.604 38.166L216.098 37.6027V38.4336V39.2645H219.159H222.219L222.217 32.2895C222.214 24.7696 222.182 24.3256 221.545 22.9305C221.141 22.0468 220.27 21.2121 219.374 20.8494L218.659 20.5602L209.697 20.5236L200.735 20.4868V21.24ZM215.554 36.9936C216.176 36.3546 216.098 35.0321 216.098 32.2747V28.3797L211.508 28.3816C208.077 28.383 206.84 28.423 206.608 28.5404C206.013 28.8419 205.985 29.052 205.983 33.1709L205.981 37.0239L206.294 37.3374L206.607 37.651L210.572 37.6133C213.535 37.585 214.914 37.6503 215.554 36.9936Z" fill="#6F6F6F"/>
<path fill-rule="evenodd" clip-rule="evenodd" d="M325.083 20.5735C323.483 20.9612 322.348 22.0001 321.88 23.5076C321.596 24.4219 321.515 34.2686 321.781 35.5363C322.104 37.0713 322.913 38.1774 324.132 38.7502L324.827 39.0768L329.929 39.1133C336.069 39.1574 336.603 39.0624 337.471 37.7729L337.755 37.3508L337.754 40.2781C337.754 43.5846 337.687 43.8966 336.88 44.3C336.481 44.5 335.874 44.5188 329.792 44.5189L323.141 44.5192V45.3358V46.1524L331.603 46.1178L340.065 46.0831L340.795 45.7882C342.434 45.1264 343.589 43.6169 343.873 41.7667C343.949 41.2742 343.998 36.8952 343.999 30.663L344 20.3726H340.877H337.755V21.3155V22.2586L337.217 21.597C336.933 21.2489 336.746 20.9999 336.507 20.822C335.874 20.3519 334.873 20.3781 330.76 20.3851C326.918 20.3916 325.662 20.4332 325.083 20.5735ZM337.286 22.856C337.029 22.57 336.637 22.2603 336.416 22.1675C336.109 22.0388 335.15 22.0001 332.357 22.0039C328.483 22.0092 328.062 22.0645 327.772 22.6062C327.59 22.9481 327.584 36.678 327.766 37.0193C328.074 37.595 328.393 37.638 332.351 37.638C336.545 37.638 336.857 37.5778 337.473 36.6499L337.755 36.2248V29.8004V23.376L337.286 22.856Z" fill="#6F6F6F"/>
</svg>
