<svg width="32" height="32" viewBox="0 0 32 32" fill="none" xmlns="http://www.w3.org/2000/svg">
<path opacity="0.1" fill-rule="evenodd" clip-rule="evenodd" d="M0 16C0 7.16344 7.16344 0 16 0C24.8366 0 32 7.16344 32 16C32 24.8366 24.8366 32 16 32C7.16344 32 0 24.8366 0 16Z" fill="white"/>
<path d="M23.2369 8.09526L5.40371 15.1445C4.82429 15.3367 4.88867 16.1698 5.46809 16.3621L9.97467 17.7719L11.7773 23.4113C11.9061 23.8598 12.4855 23.988 12.8074 23.6676L15.4469 21.2324L20.4686 24.8852C20.8548 25.1415 21.3699 24.9493 21.4986 24.5007L24.9751 9.63326C25.1683 8.54384 24.2026 7.71075 23.2369 8.09526ZM12.8074 18.8613L12.228 22.1937L10.9404 17.5796L23.4944 9.37693L12.8074 18.8613Z" fill="white"/>
</svg>
