<svg width="32" height="32" viewBox="0 0 32 32" fill="none" xmlns="http://www.w3.org/2000/svg">
<path opacity="0.1" fill-rule="evenodd" clip-rule="evenodd" d="M0 16C0 7.16344 7.16344 0 16 0C24.8366 0 32 7.16344 32 16C32 24.8366 24.8366 32 16 32C7.16344 32 0 24.8366 0 16Z" fill="white"/>
<path d="M22.075 14.4223C22.095 12.0123 20.0425 9.80316 17.5 9.49733C17.4451 9.49048 17.3903 9.48214 17.3358 9.47233C17.208 9.44786 17.0784 9.43393 16.9483 9.43066C16.4267 9.43066 16.2875 9.79733 16.2508 10.0148C16.215 10.2273 16.2492 10.4065 16.3517 10.5457C16.5242 10.7798 16.8283 10.8215 17.0725 10.8548C17.1433 10.8648 17.2108 10.874 17.2675 10.8865C19.5525 11.3973 20.3217 12.1998 20.6975 14.4657C20.7067 14.5207 20.7108 14.589 20.7158 14.6615C20.7325 14.9323 20.7658 15.4957 21.3717 15.4957C21.4217 15.4957 21.4767 15.4915 21.5333 15.4832C22.0967 15.3973 22.0792 14.8823 22.0708 14.6348C22.0683 14.5648 22.0658 14.499 22.0725 14.4548C22.0738 14.4438 22.0744 14.4326 22.0742 14.4215L22.075 14.4223Z" fill="white"/>
<path d="M16.8 8.61333C16.8683 8.61833 16.9317 8.62333 16.985 8.63083C20.7375 9.20833 22.4633 10.9858 22.9408 14.7675C22.9492 14.8317 22.9508 14.91 22.9517 14.9925C22.9567 15.2883 22.9667 15.9033 23.6267 15.9158H23.6467C23.8542 15.9158 24.0183 15.8533 24.1367 15.73C24.3417 15.5158 24.3283 15.1967 24.3158 14.94C24.3133 14.8767 24.3108 14.8175 24.3108 14.765C24.3592 10.8983 21.0108 7.39083 17.1475 7.26083C17.1308 7.26083 17.1158 7.26083 17.1008 7.26333C17.0856 7.26525 17.0703 7.26609 17.055 7.26583C17.0158 7.26583 16.9692 7.2625 16.9183 7.25917C16.8583 7.255 16.7892 7.25 16.7183 7.25C16.1033 7.25 15.9867 7.6875 15.9717 7.94833C15.9375 8.55083 16.52 8.59333 16.8 8.61333ZM22.76 19.655C22.6795 19.5938 22.5997 19.5316 22.5208 19.4683C22.1108 19.1383 21.675 18.835 21.2542 18.5408L20.9917 18.3575C20.4517 17.9783 19.9667 17.7942 19.5083 17.7942C18.89 17.7942 18.3517 18.1358 17.9067 18.8083C17.71 19.1067 17.4708 19.2517 17.1767 19.2517C16.9723 19.2445 16.7718 19.1943 16.5883 19.1042C14.8467 18.3142 13.6017 17.1025 12.89 15.5033C12.5458 14.73 12.6575 14.225 13.2625 13.8133C13.6067 13.58 14.2458 13.1458 14.2017 12.3133C14.15 11.3692 12.0658 8.52667 11.1875 8.20417C10.812 8.0672 10.4004 8.06602 10.0242 8.20083C9.01499 8.54 8.29165 9.13667 7.92915 9.92417C7.57915 10.6858 7.59582 11.58 7.97415 12.51C9.06999 15.1992 10.61 17.5442 12.5525 19.4792C14.4533 21.3733 16.79 22.9242 19.4967 24.09C19.7408 24.195 19.9967 24.2525 20.1842 24.2942C20.2475 24.3083 20.3025 24.3208 20.3425 24.3317C20.3645 24.3376 20.3872 24.3407 20.41 24.3408H20.4317C21.705 24.3408 23.2342 23.1775 23.7033 21.8517C24.115 20.69 23.3633 20.1158 22.76 19.655ZM17.3633 11.6858C17.1458 11.6908 16.6917 11.7025 16.5325 12.1642C16.4575 12.3808 16.4667 12.5675 16.5592 12.7217C16.6942 12.9467 16.9533 13.0167 17.1883 13.055C18.0425 13.1917 18.4817 13.6633 18.5692 14.5408C18.61 14.9492 18.8858 15.235 19.2383 15.235C19.2651 15.235 19.2918 15.2333 19.3183 15.23C19.7433 15.18 19.9492 14.8675 19.9308 14.3017C19.9375 13.7117 19.6292 13.0417 19.1033 12.5083C18.5767 11.9733 17.9417 11.6717 17.3633 11.6858Z" fill="white"/>
</svg>
